<svg xmlns="http://www.w3.org/2000/svg" viewBox="0 0 760 480" role="img" aria-labelledby="t d">
<title id="t">LATAM PASS Itaú Mastercard Platinum</title>
<desc id="d">Arte bronze baseada no cartão de referência enviado pelo usuário.</desc>
<defs>
  <linearGradient id="bg" x1="0" y1="0" x2="1" y2="1">
    <stop offset="0" stop-color="#8f7a63"/><stop offset=".48" stop-color="#6d5b49"/><stop offset="1" stop-color="#4b4035"/>
  </linearGradient>
  <filter id="grain" x="-20%" y="-20%" width="140%" height="140%">
    <feTurbulence type="fractalNoise" baseFrequency=".7" numOctaves="2" seed="11" stitchTiles="stitch" result="n"/>
    <feColorMatrix in="n" type="saturate" values="0" result="g"/>
    <feComponentTransfer in="g"><feFuncA type="table" tableValues="0 .17"/></feComponentTransfer>
  </filter>
  <linearGradient id="chip" x1="0" x2="1">
    <stop offset="0" stop-color="#b9b8b2"/><stop offset=".45" stop-color="#eee"/><stop offset="1" stop-color="#aaa9a4"/>
  </linearGradient>
</defs>
<rect width="760" height="480" rx="28" fill="url(#bg)"/>
<path d="M0 315 L215 188 L342 250 L130 376 Z" fill="#b39a7d" opacity=".24"/>
<path d="M0 375 L260 218 L365 270 L105 430 Z" fill="#c4aa8a" opacity=".16"/>
<rect width="760" height="480" rx="28" filter="url(#grain)" opacity=".55"/>
<circle cx="125" cy="102" r="47" fill="#d22823"/><circle cx="178" cy="102" r="47" fill="#eca239" opacity=".96"/>
<text x="101" y="174" fill="#fff" font-family="Arial,Helvetica,sans-serif" font-size="29">platinum</text>
<g transform="translate(450 70)">
  <rect width="92" height="68" rx="14" fill="url(#chip)" stroke="#7d7d78" stroke-width="2"/>
  <path d="M31 0v68M61 0v68M0 23h92M0 46h92" stroke="#8a8984" stroke-width="2"/>
</g>
<g transform="translate(580 85)" fill="none" stroke="#fff" stroke-width="8" stroke-linecap="round">
  <path d="M0 20c13-13 13-29 0-42"/><path d="M18 26c18-18 18-40 0-58"/><path d="M38 32c23-23 23-52 0-75"/>
</g>
<g transform="translate(62 350)" fill="#fff">
  <g transform="translate(0 1)">
    <path d="M0 27 28 13l12 6L12 34z"/><path d="M9 45 37 31l12 6-28 15z"/><path d="M18 63 46 49l12 6-28 15z"/>
  </g>
  <text x="68" y="27" font-family="Arial,Helvetica,sans-serif" font-size="31" font-weight="700">LATAM</text>
  <text x="66" y="79" font-family="Arial,Helvetica,sans-serif" font-size="57" font-weight="300" letter-spacing="-3">PASS</text>
</g>
<g transform="translate(620 352)">
  <rect width="92" height="78" rx="18" fill="#fff"/>
  <text x="15" y="52" fill="#66533f" font-family="Arial,Helvetica,sans-serif" font-size="41" font-weight="700">itaú</text>
</g>
</svg>