<svg xmlns="http://www.w3.org/2000/svg" viewBox="0 0 1034 638" role="img" aria-labelledby="t d">
<title id="t">Mercado Pago Visa</title>
<desc id="d">Arte local horizontal do cartão Mercado Pago Visa, com composição centralizada e margens seguras para o MEG.</desc>
<defs>
  <linearGradient id="bg" x1="0" y1="0" x2="1" y2="1">
    <stop offset="0" stop-color="#1c2533"/>
    <stop offset=".48" stop-color="#121b27"/>
    <stop offset="1" stop-color="#08111d"/>
  </linearGradient>
  <radialGradient id="glow" cx=".18" cy=".18" r=".95">
    <stop offset="0" stop-color="#506b8d" stop-opacity=".20"/>
    <stop offset=".48" stop-color="#25374f" stop-opacity=".07"/>
    <stop offset="1" stop-color="#08111d" stop-opacity="0"/>
  </radialGradient>
  <linearGradient id="chip" x1="0" y1="0" x2="1" y2="1">
    <stop stop-color="#f4f5f6"/>
    <stop offset=".32" stop-color="#b8bdc4"/>
    <stop offset=".62" stop-color="#eceef0"/>
    <stop offset="1" stop-color="#8e959e"/>
  </linearGradient>
  <filter id="shadow" x="-20%" y="-20%" width="140%" height="140%">
    <feGaussianBlur stdDeviation="10" result="b"/>
    <feMerge><feMergeNode in="b"/><feMergeNode in="SourceGraphic"/></feMerge>
  </filter>
</defs>

<rect width="1034" height="638" rx="50" fill="url(#bg)"/>
<rect width="1034" height="638" rx="50" fill="url(#glow)"/>

<g opacity=".085" fill="#dfe6ef" font-family="Arial,Helvetica,sans-serif" font-size="120" font-weight="900" letter-spacing="-8">
  <text x="238" y="168">MERCADO</text>
  <text x="238" y="292">PAGO</text>
</g>

<g transform="translate(92 120)" fill="none" stroke="#eef3f8" stroke-width="10" stroke-linecap="round">
  <path d="M0 20c14-14 14-31 0-45"/>
  <path d="M23 29c20-20 20-44 0-64"/>
  <path d="M49 39c28-28 28-61 0-89"/>
</g>

<g transform="translate(88 248)">
  <rect width="138" height="106" rx="20" fill="url(#chip)" stroke="#7f8790" stroke-width="2.2"/>
  <path d="M34 0v106M69 0v106M104 0v106M0 35h138M0 71h138" stroke="#8b929a" stroke-width="3" opacity=".72"/>
</g>

<text x="823" y="116" fill="#fff" font-family="Arial,Helvetica,sans-serif" font-size="82" font-weight="900" font-style="italic" letter-spacing="-5">VISA</text>

<g transform="translate(748 412)" filter="url(#shadow)">
  <circle cx="100" cy="100" r="94" fill="#f8fafc"/>
  <circle cx="100" cy="100" r="79" fill="#111a27"/>
  <path d="M47 102c14-10 28-15 43-15 11 0 19 3 28 9 11 7 18 10 28 8 9-2 18-8 29-17 8-7 18-5 24 2 6 8 4 18-4 24-16 13-30 20-45 22-18 2-31-4-44-13-7-5-12-7-18-7-7 0-15 4-24 10-9 6-20 4-26-5-5-8-2-18 9-18Z" fill="#f8fafc"/>
  <path d="M69 111c10 15 18 24 28 29 12 6 26 5 39-1" fill="none" stroke="#111a27" stroke-width="8" stroke-linecap="round"/>
</g>

<g transform="translate(90 474)">
  <text x="0" y="0" fill="#dce3eb" font-family="Arial,Helvetica,sans-serif" font-size="28" font-weight="700" letter-spacing=".8">Mercado Pago</text>
  <text x="0" y="40" fill="#8ea2b9" font-family="Arial,Helvetica,sans-serif" font-size="19">crédito • débito • aproximação</text>
</g>

<path d="M46 56h942" stroke="#fff" stroke-opacity=".035" stroke-width="2"/>
<path d="M46 582h942" stroke="#fff" stroke-opacity=".028" stroke-width="2"/>
</svg>