<svg xmlns="http://www.w3.org/2000/svg" viewBox="0 0 1010 638">
  <defs>
    <linearGradient id="g" x1="0" y1="0" x2="1" y2="1"><stop stop-color="#152231"/><stop offset=".55" stop-color="#0c1722"/><stop offset="1" stop-color="#05090e"/></linearGradient>
    <linearGradient id="chip" x1="0" y1="0" x2="1" y2="1"><stop stop-color="#e1e4e8"/><stop offset=".45" stop-color="#8d949c"/><stop offset="1" stop-color="#f2f4f6"/></linearGradient>
  </defs>
  <rect width="1010" height="638" rx="54" fill="url(#g)"/>
  <g fill="#314151" opacity=".66" font-family="Arial Black,Arial,sans-serif" font-size="96" font-weight="900">
    <text x="45" y="118">MER</text><text x="45" y="214">CADO</text><text x="45" y="310">PAGO</text>
  </g>
  <rect x="650" y="118" width="128" height="96" rx="18" fill="url(#chip)"/>
  <path d="M672 118v96M714 118v96M756 118v96M650 150h128M650 182h128" stroke="#686f77" stroke-width="5" opacity=".75"/>
  <path d="M813 140c24 18 24 39 0 57M829 128c36 26 36 54 0 80M845 115c49 35 49 72 0 108" fill="none" stroke="#fff" stroke-width="7" stroke-linecap="round" opacity=".9"/>
  <circle cx="122" cy="505" r="54" fill="#fff"/>
  <path d="M83 506c19-25 40-34 62-23 10 5 20 12 30 17-16 5-30 17-40 30-18 1-35-7-52-24Z" fill="#2d73b8"/>
  <path d="M112 495c18 13 31 13 50 0" fill="none" stroke="#2d73b8" stroke-width="8" stroke-linecap="round"/>
  <text x="805" y="550" fill="#fff" font-family="Arial,Helvetica,sans-serif" font-size="58" font-weight="800" font-style="italic">VISA</text>
</svg>